<svg width="32" height="32" viewBox="0 0 32 32" fill="none" xmlns="http://www.w3.org/2000/svg">
<path d="M22.9494 19.9654C24.398 20.1089 25.7352 19.9045 26.8073 18.8228C27.5786 18.0442 27.9804 17.106 27.9896 16.007C28.0378 9.87353 23.3397 4.66912 17.2102 4.06508C10.7617 3.43003 5.05692 7.89259 4.11454 14.312C3.1561 20.8382 7.82091 27.0233 14.3613 27.88C14.9834 27.9615 15.6182 27.9845 16.2472 27.9856C21.3046 27.9937 26.3619 27.9902 31.4193 27.9902C31.5903 27.9902 31.7602 27.9902 31.9622 27.9902C31.9622 29.32 31.9622 30.6177 31.9622 31.9682C31.8302 31.9751 31.6936 31.99 31.557 31.99C26.3998 31.9911 21.2426 32.0152 16.0853 31.9842C9.10993 31.9429 3.14807 27.7135 0.900601 21.2654C-2.31679 12.0382 3.40403 2.12433 13.0045 0.288089C21.6822 -1.37245 30.0511 4.31427 31.6971 12.9971C32.0139 14.6691 32.1711 16.3515 31.7177 18.0224C30.7845 21.4652 27.8725 23.8515 24.3119 23.9537C21.3631 24.0387 18.4086 24.0272 15.4598 23.9434C11.8957 23.8423 8.69327 20.9174 8.12853 17.3908C7.39621 12.8145 10.399 8.72287 14.9731 8.0614C19.1133 7.4631 23.1813 10.4638 23.8677 14.6209C24.15 16.3285 23.9124 17.9569 23.1285 19.5026C23.0642 19.6301 23.0022 19.7587 22.9402 19.8873C22.9379 19.8988 22.9448 19.9149 22.9494 19.9654ZM19.996 15.9852C19.9914 13.7929 18.1905 11.9946 16.0004 11.9957C13.7874 11.9969 11.9956 13.8021 12.0013 16.0242C12.0071 18.205 13.8207 19.9964 16.0188 19.993C18.202 19.9884 20.0006 18.1762 19.996 15.9852Z" fill="#1B1F28"/>
</svg>
