<svg width="32" height="32" viewBox="0 0 32 32" fill="none" xmlns="http://www.w3.org/2000/svg">
<path fill-rule="evenodd" clip-rule="evenodd" d="M7.66683 28C6.37817 28 5.3335 26.9553 5.3335 25.6667C5.3335 24.378 6.37817 23.3333 7.66683 23.3333C8.95549 23.3333 10.0002 24.378 10.0002 25.6667C10.0002 26.9553 8.95549 28 7.66683 28ZM3.3335 25.6667C3.3335 28.0599 5.2736 30 7.66683 30C10.0601 30 12.0002 28.0599 12.0002 25.6667C12.0002 23.2734 10.0601 21.3333 7.66683 21.3333C5.2736 21.3333 3.3335 23.2734 3.3335 25.6667Z" fill="#24292E"/>
<path fill-rule="evenodd" clip-rule="evenodd" d="M7.66683 8.66699C6.37817 8.66699 5.3335 7.62232 5.3335 6.33366C5.3335 5.04499 6.37817 4.00033 7.66683 4.00033C8.95549 4.00033 10.0002 5.04499 10.0002 6.33366C10.0002 7.62232 8.95549 8.66699 7.66683 8.66699ZM3.3335 6.33366C3.3335 8.72689 5.2736 10.667 7.66683 10.667C10.0601 10.667 12.0002 8.72689 12.0002 6.33366C12.0002 3.94043 10.0601 2.00033 7.66683 2.00033C5.2736 2.00033 3.3335 3.94043 3.3335 6.33366Z" fill="#24292E"/>
<path fill-rule="evenodd" clip-rule="evenodd" d="M24.3333 8.66699C23.0447 8.66699 22 7.62232 22 6.33366C22 5.04499 23.0447 4.00033 24.3333 4.00033C25.622 4.00033 26.6667 5.04499 26.6667 6.33366C26.6667 7.62232 25.622 8.66699 24.3333 8.66699ZM20 6.33366C20 8.72689 21.9401 10.667 24.3333 10.667C26.7266 10.667 28.6667 8.72689 28.6667 6.33366C28.6667 3.94043 26.7266 2.00033 24.3333 2.00033C21.9401 2.00033 20 3.94043 20 6.33366Z" fill="#24292E"/>
<path fill-rule="evenodd" clip-rule="evenodd" d="M7.6665 22.333C8.21879 22.333 8.6665 21.8853 8.6665 21.333L8.6665 10.6663C8.6665 10.1141 8.21879 9.66634 7.6665 9.66634C7.11422 9.66634 6.6665 10.1141 6.6665 10.6663L6.6665 21.333C6.6665 21.8853 7.11422 22.333 7.6665 22.333Z" fill="#24292E"/>
<path fill-rule="evenodd" clip-rule="evenodd" d="M23.3332 11.6663V10.333H25.3332V11.6663C25.3332 14.4278 23.0946 16.6663 20.3332 16.6663H10.9998C9.71117 16.6663 8.6665 17.711 8.6665 18.9997H6.6665C6.6665 16.6064 8.6066 14.6663 10.9998 14.6663H20.3332C21.99 14.6663 23.3332 13.3232 23.3332 11.6663Z" fill="#24292E"/>
</svg>
