<svg width="34" height="37" viewBox="0 0 34 37" fill="none" xmlns="http://www.w3.org/2000/svg">
<path d="M3.71863 26.3309C1.9497 24.4703 1.91259 22.1446 3.60867 20.9553C3.6018 20.9254 3.60318 20.878 3.58393 20.8671C1.0728 19.5029 -0.201321 16.7215 0.392444 13.8927C0.957346 11.2008 3.39701 9.07984 6.2064 8.83438C7.67844 8.70555 9.07764 8.93202 10.4067 9.59245C10.6349 9.70636 10.9442 9.76196 11.1929 9.71856C12.4877 9.48938 13.7755 9.21816 15.1321 8.9483C15.1321 9.18697 15.1321 9.51244 15.1321 9.83926C15.1321 10.7356 15.1225 11.632 15.1376 12.5284C15.1417 12.7956 15.0497 12.9285 14.7871 12.9895C14.3885 13.0817 13.9954 13.201 13.5419 13.3245C13.935 14.4392 13.9199 15.5525 13.6683 16.674C13.0883 19.2561 11.0624 21.1804 8.42477 21.6428C7.31284 21.8381 6.79742 22.2164 6.74244 23.0491C6.7177 23.4329 6.84964 23.8926 7.06818 24.2126C7.58086 24.9585 8.40965 25.208 9.27694 25.3734C10.0508 25.5199 10.8328 25.6704 11.5737 25.9267C14.3611 26.8882 15.3946 28.719 14.8476 31.5803C14.4174 33.8315 13.0416 35.2242 10.8356 35.8033C8.51274 36.4121 6.16929 36.3932 3.8657 35.7015C2.20673 35.2025 0.804781 34.3197 0.274241 32.5784C-0.412988 30.3205 0.0983107 27.9202 2.87609 26.6875C3.15098 26.5641 3.43 26.4516 3.71863 26.3309ZM4.6244 15.364C4.64914 15.6244 4.65738 15.9309 4.71099 16.2292C4.92815 17.424 5.72122 18.0586 7.02695 18.0966C8.40416 18.1373 9.29343 17.5826 9.4886 16.3838C9.60543 15.6719 9.59306 14.8935 9.4295 14.1924C9.12987 12.9108 8.18012 12.3508 6.80429 12.4633C5.60164 12.5623 4.86355 13.2946 4.69312 14.5653C4.66013 14.8148 4.64914 15.0684 4.6244 15.364ZM7.44204 28.4599C6.73419 28.62 5.96312 28.719 5.24978 28.9739C4.52269 29.2343 4.20381 29.8635 4.19282 30.6243C4.18182 31.3932 4.51994 31.9885 5.24016 32.2787C6.68883 32.8632 8.18424 32.9093 9.65904 32.3899C10.47 32.1052 10.8562 31.419 10.8342 30.5497C10.8136 29.7293 10.3999 29.1461 9.62193 28.9075C8.94157 28.6986 8.22273 28.6145 7.44204 28.4599Z" fill="#1B1F28"/>
<path d="M30.0235 8.98224C31.1505 8.98224 32.2776 8.98224 33.439 8.98224C33.439 10.2773 33.439 11.5182 33.439 12.7861C32.2982 12.7861 31.1725 12.7861 30.0152 12.7861C30.0015 12.9339 29.9795 13.0641 29.9795 13.1943C29.9781 15.4956 29.963 17.7956 29.9891 20.0969C29.9946 20.6298 30.0798 21.1791 30.2338 21.6903C30.4606 22.4443 30.9925 22.8294 31.7828 22.7548C32.5181 22.6857 33.2383 22.466 33.9984 22.306C33.9984 23.4343 34.0067 24.6466 33.9847 25.859C33.9819 25.9797 33.8225 26.1519 33.6947 26.2061C31.978 26.9344 30.2077 27.1039 28.4167 26.5343C27.1825 26.1424 26.4361 25.2365 26.0389 24.0431C25.6156 22.7738 25.5235 21.4584 25.5194 20.1349C25.5111 17.6993 25.5166 15.2651 25.5166 12.7712C24.8775 12.7712 24.2563 12.7712 23.6089 12.7712C23.6089 11.529 23.6089 10.3017 23.6089 9.00394C24.2466 9.00394 24.8706 9.00394 25.5084 9.00394C25.5084 7.87295 25.5084 6.81247 25.5084 5.70996C26.9832 5.70996 28.4978 5.70996 30.0221 5.70996C30.0235 6.78535 30.0235 7.85668 30.0235 8.98224Z" fill="#1B1F28"/>
<path d="M21.6054 26.5873C20.2832 26.5873 18.983 26.5886 17.6827 26.5859C17.515 26.5859 17.3487 26.5724 17.1646 26.5642C17.1646 20.7113 17.1646 14.899 17.1646 9.04199C18.6283 9.04199 20.1086 9.04199 21.6054 9.04199C21.6054 14.8773 21.6054 20.7031 21.6054 26.5873Z" fill="#1B1F28"/>
<path d="M19.3925 5.89643C17.86 5.89371 16.5969 4.58372 16.5831 2.98351C16.5694 1.33991 17.86 -0.012123 19.4296 8.19883e-05C20.936 0.0122869 22.1854 1.36026 22.1854 2.96995C22.184 4.56337 20.9099 5.89914 19.3925 5.89643Z" fill="#1B1F28"/>
</svg>
