<svg width="25" height="25" viewBox="0 0 25 25" fill="none" xmlns="http://www.w3.org/2000/svg">
<path d="M13.5242 24.9995C11.777 24.9995 10.0811 24.9995 8.36084 24.9995C8.36084 19.4426 8.36084 13.8962 8.36084 8.33035C10.0014 8.33035 11.6331 8.33035 13.307 8.33035C13.307 9.07794 13.307 9.81171 13.307 10.565C13.6673 10.1436 13.9691 9.72222 14.3384 9.37324C15.2493 8.51176 16.3604 8.05946 17.6008 7.94801C18.6818 7.85121 19.7547 7.92849 20.7966 8.25795C22.5958 8.82576 23.5914 10.1249 24.0729 11.8853C24.3616 12.942 24.4714 14.0264 24.4788 15.1148C24.4991 18.3289 24.4918 21.5438 24.495 24.7579C24.495 24.8164 24.4853 24.875 24.4779 24.9498C22.7585 24.9498 21.0552 24.9498 19.3097 24.9498C19.3097 24.8254 19.3097 24.7074 19.3097 24.5895C19.3073 21.8326 19.3138 19.0765 19.2967 16.3196C19.2927 15.7428 19.243 15.1596 19.1397 14.5917C18.8315 12.8916 17.7383 12.2798 16.1099 12.4751C14.6637 12.6483 13.8617 13.4992 13.6527 15.0684C13.5551 15.8014 13.5331 16.5474 13.5291 17.2884C13.5144 19.7297 13.5234 22.171 13.5234 24.6122C13.5242 24.7335 13.5242 24.853 13.5242 24.9995Z" fill="#1B1F28"/>
<path d="M5.58277 24.9997C3.85108 24.9997 2.15519 24.9997 0.436523 24.9997C0.436523 19.4452 0.436523 13.9005 0.436523 8.33301C2.14299 8.33301 3.85353 8.33301 5.58277 8.33301C5.58277 13.8875 5.58277 19.4314 5.58277 24.9997Z" fill="#1B1F28"/>
<path d="M5.9998 3.44003C6.04047 5.08326 4.70327 6.4849 3.06269 6.51988C1.43186 6.55486 0.0483068 5.21667 0.00113081 3.55961C-0.0444184 1.92288 1.29196 0.526938 2.94393 0.486264C4.5894 0.44559 5.95913 1.76994 5.9998 3.44003Z" fill="#1B1F28"/>
</svg>
