<svg width="40" height="40" viewBox="0 0 40 40" fill="none" xmlns="http://www.w3.org/2000/svg">
<path opacity="0.5" fill-rule="evenodd" clip-rule="evenodd" d="M20.1234 4.41951C20.0432 4.3935 19.9568 4.3935 19.8766 4.41951L6.6766 8.70059C6.51032 8.75452 6.4 8.90752 6.4 9.07946L6.4 17.118C6.40001 25.8561 11.6492 32.2903 19.8889 35.3994C19.9599 35.4262 20.0401 35.4262 20.1111 35.3994C28.3508 32.2903 33.6 25.8561 33.6 17.118V9.07991C33.6 8.90757 33.4893 8.7544 33.3234 8.70059L20.1234 4.41951ZM19.1362 2.13658C19.6977 1.95447 20.3023 1.95447 20.8638 2.13658L34.0638 6.41766C35.2172 6.79174 36 7.86529 36 9.07991V17.118C36 27.0209 29.9667 34.2458 20.9584 37.6449C20.3414 37.8777 19.6586 37.8777 19.0416 37.6449C10.0333 34.2458 4.00001 27.0209 4 17.118V9.07946C4 7.86444 4.78316 6.79161 5.93619 6.41766L19.1362 2.13658ZM21.6 19.8899C22.5565 19.3366 23.2 18.3024 23.2 17.118C23.2 15.3507 21.7673 13.918 20 13.918C18.2327 13.918 16.8 15.3507 16.8 17.118C16.8 18.3024 17.4435 19.3366 18.4 19.8899V24.318C18.4 25.2016 19.1163 25.918 20 25.918C20.8837 25.918 21.6 25.2016 21.6 24.318V19.8899Z" fill="#24292E"/>
</svg>
