<svg width="30" height="23" viewBox="0 0 30 23" fill="none" xmlns="http://www.w3.org/2000/svg">
<path d="M14.9215 3.54007C10.6452 3.54007 6.36892 3.55269 2.09261 3.52115C1.59995 3.51695 1.03949 3.3761 0.636588 3.09651C0.0860927 2.71392 -0.069482 2.04122 0.0801091 1.34329C0.231695 0.628552 0.678474 0.21232 1.34665 0.0672698C1.58799 0.0147153 1.8393 0.00840873 2.08662 0.00840873C10.713 0.00420436 19.3415 0.00840873 27.9679 0C28.8036 0 29.5017 0.197605 29.8527 1.08473C30.2796 2.16525 29.7291 3.25838 28.64 3.48121C28.3508 3.54007 28.0477 3.53797 27.7505 3.53797C23.4742 3.54007 19.1979 3.54007 14.9215 3.54007Z" fill="#1B1F28"/>
<path d="M15.033 9.22885C19.2894 9.22885 23.5438 9.22675 27.8001 9.23306C28.1212 9.23306 28.4523 9.23936 28.7615 9.31294C29.4935 9.48742 29.9722 10.1643 29.9921 10.98C30.0101 11.762 29.5852 12.4242 28.8732 12.647C28.592 12.7353 28.2868 12.7668 27.9916 12.7668C19.3572 12.7731 10.7208 12.7836 2.0864 12.7437C1.54787 12.7416 0.881695 12.4851 0.496748 12.1025C-0.446674 11.1629 0.0340123 9.62196 1.30454 9.30243C1.58976 9.23095 1.89692 9.23306 2.19211 9.23306C6.47241 9.22885 10.7527 9.22885 15.033 9.22885Z" fill="#1B1F28"/>
<path d="M14.9398 22.001C10.6136 22.001 6.28745 22.0031 1.96127 21.9968C0.692738 21.9947 -0.107075 21.1391 0.0385266 19.9745C0.160194 19.0075 0.836346 18.4714 1.99119 18.4672C5.09869 18.4588 8.2062 18.463 11.3157 18.463C16.8605 18.463 22.4054 18.4651 27.9482 18.4609C28.6184 18.4609 29.2567 18.5366 29.6655 19.1799C30.0385 19.7643 30.1163 20.4034 29.8131 21.0445C29.4721 21.7614 28.8597 21.9947 28.1417 21.9968C25.7802 21.9989 23.4186 21.9989 21.0551 21.9989C19.0166 22.0031 16.9782 22.001 14.9398 22.001Z" fill="#1B1F28"/>
</svg>
