<svg width="31" height="33" viewBox="0 0 31 33" fill="none" xmlns="http://www.w3.org/2000/svg">
<path d="M0.0014422 16.4643C0.0014422 12.8695 -0.00256391 9.27586 0.00277756 5.68101C0.00678367 2.35277 2.50926 -0.00252511 6.01727 2.03167e-06C12.3496 0.00379274 18.6806 0.0012656 25.0129 0.0012656C28.4368 0.0012656 30.99 2.39446 30.994 5.63552C31.002 12.872 31.002 20.1072 30.994 27.3436C30.9913 30.5607 28.4661 32.9766 25.0609 32.9867C18.6792 33.0044 12.2975 33.0044 5.91579 32.9867C2.49724 32.9779 0.0121251 30.5809 0.00411293 27.3411C-0.00122854 25.5279 0.00277756 23.7159 0.00277756 21.9027C0.0014422 20.0895 0.0014422 18.2775 0.0014422 16.4643ZM27.1094 16.4908C27.1094 12.8808 27.1121 9.27207 27.1081 5.66206C27.1067 4.41997 26.3482 3.68078 25.0463 3.67067C23.2796 3.65677 21.5142 3.66435 19.7475 3.66435C15.1499 3.66435 10.5522 3.66309 5.95318 3.66814C4.66989 3.66941 3.90072 4.38585 3.86333 5.59129C3.85531 5.84274 3.85665 6.09546 3.85665 6.34817C3.85665 10.3044 3.85531 14.2606 3.85665 18.2169C3.85798 21.2583 3.85131 24.301 3.86733 27.3424C3.87401 28.5984 4.67256 29.3224 6.00526 29.3224C12.3028 29.3262 18.5991 29.3274 24.8967 29.3249C26.3549 29.3236 27.1081 28.6047 27.1081 27.2249C27.1121 23.6464 27.1094 20.068 27.1094 16.4908Z" fill="#1B1F28"/>
<path d="M10.001 15C10.001 13.6606 10.001 12.3436 10.001 11C13.6757 11 17.3173 11 21.001 11C21.001 12.3212 21.001 13.6368 21.001 15C17.3606 15 13.7088 15 10.001 15Z" fill="#1B1F28"/>
<path d="M21.001 18C21.001 19.3583 21.001 20.6558 21.001 22C17.3356 22 13.688 22 10.001 22C10.001 20.6841 10.001 19.3597 10.001 18C13.6613 18 17.3102 18 21.001 18Z" fill="#1B1F28"/>
</svg>
