<svg width="33" height="33" viewBox="0 0 33 33" fill="none" xmlns="http://www.w3.org/2000/svg">
<path d="M13.0661 20.1287C12.7231 19.6787 12.0807 19.5888 11.6273 19.9289C11.1812 20.2634 11.0905 20.9373 11.4268 21.3803C11.4602 21.423 11.4942 21.4651 11.5295 21.5063C11.5895 21.5763 11.6739 21.6697 11.7827 21.7785C11.9998 21.9956 12.3176 22.2774 12.7375 22.5573C13.5812 23.1198 14.8403 23.6758 16.4999 23.6758C18.1595 23.6758 19.4187 23.1198 20.2624 22.5573C20.6823 22.2774 21.0001 21.9956 21.2172 21.7785C21.326 21.6697 21.4103 21.5763 21.4703 21.5063L21.5788 21.3727C21.9206 20.917 21.8282 20.2707 21.3726 19.9289C20.9191 19.5888 20.2767 19.6787 19.9338 20.1287L19.9319 20.1309C19.9196 20.1463 19.8614 20.2175 19.7588 20.3201C19.6214 20.4575 19.4074 20.6484 19.1183 20.8412C18.5441 21.224 17.6763 21.6133 16.4999 21.6133C15.3236 21.6133 14.4558 21.224 13.8815 20.8412C13.5924 20.6484 13.3785 20.4575 13.2411 20.3201C13.1801 20.2591 13.1199 20.1963 13.0661 20.1287Z" fill="#24292E"/>
<path d="M22 16.1562C22.9492 16.1562 23.7188 15.3867 23.7188 14.4375C23.7188 13.4883 22.9492 12.7188 22 12.7188C21.0508 12.7188 20.2812 13.4883 20.2812 14.4375C20.2812 15.3867 21.0508 16.1562 22 16.1562Z" fill="#24292E"/>
<path d="M12.375 14.4375C12.375 15.3867 11.6055 16.1562 10.6562 16.1562C9.70701 16.1562 8.9375 15.3867 8.9375 14.4375C8.9375 13.4883 9.70701 12.7188 10.6562 12.7188C11.6055 12.7188 12.375 13.4883 12.375 14.4375Z" fill="#24292E"/>
<path fill-rule="evenodd" clip-rule="evenodd" d="M16.5 1.375C8.14669 1.375 1.375 8.14669 1.375 16.5C1.375 24.8533 8.14669 31.625 16.5 31.625C24.8533 31.625 31.625 24.8533 31.625 16.5C31.625 8.14669 24.8533 1.375 16.5 1.375ZM16.5 3.82422C9.49936 3.82422 3.82422 9.49936 3.82422 16.5C3.82422 23.5006 9.49936 29.1758 16.5 29.1758C23.5006 29.1758 29.1758 23.5006 29.1758 16.5C29.1758 9.49936 23.5006 3.82422 16.5 3.82422Z" fill="#24292E"/>
</svg>
