<svg width="32" height="32" viewBox="0 0 32 32" fill="none" xmlns="http://www.w3.org/2000/svg">
<path d="M22.7069 13.0408C23.0975 12.6502 23.0975 12.0171 22.7069 11.6266C22.3164 11.236 21.6833 11.236 21.2927 11.6266L13.9998 18.9194L10.7069 15.6266C10.3164 15.236 9.68326 15.236 9.29273 15.6266C8.90221 16.0171 8.90221 16.6502 9.29273 17.0408L13.2927 21.0408C13.6833 21.4313 14.3164 21.4313 14.7069 21.0408L22.7069 13.0408Z" fill="#24292E"/>
<path fill-rule="evenodd" clip-rule="evenodd" d="M18.8479 1.60017C17.153 0.355935 14.8467 0.355934 13.1518 1.60016L11.3181 2.9464C10.9527 3.21463 10.5279 3.39059 10.0798 3.45928L7.83124 3.80403C5.753 4.12265 4.12216 5.75349 3.80354 7.83172L3.45879 10.0803C3.3901 10.5284 3.21414 10.9532 2.94591 11.3185L1.59968 13.1523C0.355447 14.8471 0.355446 17.1535 1.59968 18.8483L2.94591 20.6821C3.21414 21.0475 3.3901 21.4723 3.45879 21.9203L3.80354 24.1689C4.12216 26.2472 5.753 27.878 7.83124 28.1966L10.0798 28.5414C10.5279 28.6101 10.9527 28.786 11.3181 29.0543L13.1518 30.4005C14.8467 31.6447 17.153 31.6447 18.8479 30.4005L20.6816 29.0543C21.047 28.786 21.4718 28.6101 21.9198 28.5414L24.1684 28.1966C26.2467 27.878 27.8775 26.2472 28.1961 24.1689L28.5409 21.9203C28.6096 21.4723 28.7855 21.0475 29.0538 20.6821L30.4 18.8483C31.6442 17.1535 31.6442 14.8471 30.4 13.1523L29.0538 11.3185C28.7855 10.9532 28.6096 10.5284 28.5409 10.0803L28.1961 7.83173C27.8775 5.75349 26.2467 4.12265 24.1684 3.80403L21.9198 3.45928C21.4718 3.39059 21.047 3.21463 20.6816 2.9464L18.8479 1.60017ZM14.3354 3.21236C15.3259 2.4852 16.6738 2.4852 17.6643 3.21236L19.4981 4.55859C20.1233 5.01757 20.8501 5.31865 21.6167 5.43618L23.8654 5.78093C25.0799 5.96714 26.033 6.92024 26.2192 8.13481L26.564 10.3834C26.6815 11.15 26.9826 11.8769 27.4416 12.5021L28.7878 14.3359C29.515 15.3264 29.515 16.6743 28.7878 17.6648L27.4416 19.4985C26.9826 20.1237 26.6815 20.8506 26.564 21.6172L26.2192 23.8658C26.033 25.0804 25.0799 26.0335 23.8653 26.2197L21.6168 26.5645C20.8501 26.682 20.1233 26.9831 19.4981 27.4421L17.6643 28.7883C16.6738 29.5154 15.3259 29.5154 14.3354 28.7883L12.5016 27.4421C11.8764 26.9831 11.1496 26.682 10.3829 26.5645L8.13433 26.2197C6.91975 26.0335 5.96665 25.0804 5.78044 23.8658L5.43569 21.6172C5.31816 20.8506 5.01708 20.1237 4.5581 19.4985L3.21187 17.6648C2.48471 16.6743 2.48471 15.3264 3.21187 14.3359L4.5581 12.5021C5.01708 11.8769 5.31816 11.15 5.43569 10.3834L5.78044 8.13481C5.96665 6.92024 6.91975 5.96714 8.13433 5.78093L10.3829 5.43618C11.1496 5.31865 11.8764 5.01757 12.5016 4.55859L14.3354 3.21236Z" fill="#24292E"/>
</svg>
